# xmcd
#
# Track frame offsets:
#	150
#	10932
#	16685
#	20966
#	25776
#	31856
#	47382
#	50429
#	53935
#	62812
#	74515
#	75984
#	78074
#	85686
#	96297
#	112504
#	123945
#	131716
#	138250
#	148411
#	159486
#	171708
#	187821
#	196990
#	204634
#	209416
#	215969
#	224574
#	229380
#	243568
#	255963
#	270677
#	281391
#	286361
#	295727
#	301370
#	307124
#	313679
#	320024
#	327281
#	334096
#
# Disc length: 4547 seconds
#
# Revision: 0
# Processed by: cddbd v1.5.2PL0 Copyright (c) Steve Scherf et al.
# Submitted via: audiograbber 1.83.01
#
DISCID=6211c129
DTITLE=диажояои (BY DJ ZRAF) - нежамтыла LIVE [CD 2)
DYEAR=2007
DGENRE=каийа
TTITLE0=йомтокафос - ам то кес ауто ацапг
TTITLE1=йомтокафос - пяосеувг
TTITLE2=йомтокафос - лг л' ажгмеис ломо лоу
TTITLE3=йомтокафос - аутг г мувта лемеи
TTITLE4=йомтокафос - йакг тувг
TTITLE5=йомтокафос - ока та 'дыса циа сема
TTITLE6=памтафгс - жеуцомтас ма паяеис оти хес
TTITLE7=памтафгс - ла поу ма паы
TTITLE8=памтафгс - еисаи оти йакутеяо
TTITLE9=памтафгс - дем пеияафеи
TTITLE10=памтафгс - енайокоухы
TTITLE11=памтафгс - таяавг
TTITLE12=памтафгс - се мостакцы
TTITLE13=цомидгс - ока с' ацапаме
TTITLE14=цомидгс - тыяа сйояпифесаи
TTITLE15=цомидгс - есу ха жтаис
TTITLE16=цомидгс - ти дем евы ецы
TTITLE17=цомидгс - алаятиа
TTITLE18=цомидгс - ояйо димы
TTITLE19=цомидгс - стасоу
TTITLE20=цомидгс - йаи ле паиямоум та йкалата
TTITLE21=лайяопоукос - йопгйа ста дуо
TTITLE22=лайяопоукос - А) евы латиа йаи бкепы Б) ти ма йамы ейеи Ц) йаядиа еиса
TTITLE22=и есу 'г басамо
TTITLE23=лайяопоукос - А) ха 'хека ма 'соум еды Б) паяайакы Ц) ема соу сглади л
TTITLE23=омо
TTITLE24=доуйисса - йажемеио
TTITLE25=доуйисса - паифеис ле тг жкоца
TTITLE26=доуйисса - памтяелемои йи ои дуо
TTITLE27=доуйисса - о жамтаяос
TTITLE28=йаяоусайгс - то поуки
TTITLE29=йаяоусайгс - лг лоу тг вакас
TTITLE30=йаяоусайгс - суцваягтгяиа
TTITLE31=йыстопоукос - соу ьихуяифы
TTITLE32=йыстопоукос - та целата жеццаяиа
TTITLE33=йыстопоукос - текеиысале
TTITLE34=бекгс - евеи елподиа г фыг
TTITLE35=бекгс - лг лоу кете ци' аутг
TTITLE36=бекгс - лиа дейаяа (дем анифеи г ацапг соу)
TTITLE37=бекгс - еисаи ецыистяиа
TTITLE38=бекгс - цкуйе лоу туяамме
TTITLE39=бекгс - о каос тяацоуди хекеи
TTITLE40=бекгс - еисаи г фыг лоу
EXTD=
EXTT0=
EXTT1=
EXTT2=
EXTT3=
EXTT4=
EXTT5=
EXTT6=
EXTT7=
EXTT8=
EXTT9=
EXTT10=
EXTT11=
EXTT12=
EXTT13=
EXTT14=
EXTT15=
EXTT16=
EXTT17=
EXTT18=
EXTT19=
EXTT20=
EXTT21=
EXTT22=
EXTT23=
EXTT24=
EXTT25=
EXTT26=
EXTT27=
EXTT28=
EXTT29=
EXTT30=
EXTT31=
EXTT32=
EXTT33=
EXTT34=
EXTT35=
EXTT36=
EXTT37=
EXTT38=
EXTT39=
EXTT40=
PLAYORDER=
